<svg width="674" height="299" viewBox="0 0 674 299" fill="none" xmlns="http://www.w3.org/2000/svg">
<path d="M0 99.268C0 17.5208 17.5208 0 99.268 0H574.732C656.479 0 674 17.5208 674 99.268V199.732C674 281.479 656.479 299 574.732 299H99.268C17.5208 299 0 281.479 0 199.732V99.268Z" fill="white"/>
<path d="M66.68 95.864C71.504 95.864 75.968 94.064 78.056 90.608H78.776V95H92.312V70.592C92.312 62.24 85.04 56.912 74.024 56.912C62.936 56.912 55.808 62.24 55.808 70.52H68.84C68.84 67.352 70.928 65.48 73.88 65.48C76.976 65.48 78.776 67.352 78.776 70.088V71.744L72.296 72.536C60.128 74.192 54.296 78.008 54.296 85.208C54.296 91.976 59.336 95.864 66.68 95.864ZM71.936 87.728C68.984 87.728 67.256 86.216 67.256 83.912C67.256 81.752 68.84 80.24 72.8 79.736L78.776 78.872V81.104C78.776 84.92 75.968 87.728 71.936 87.728ZM98.2149 95H111.679V74.552C111.679 70.88 114.127 68.288 117.295 68.288C120.463 68.288 122.479 70.736 122.479 74.336V95H135.943V71.816C135.943 63.248 130.543 56.984 122.839 56.984C118.447 56.984 115.351 59 112.399 63.32H111.679V57.848H98.2149V95ZM161.319 112.496C173.919 112.496 181.767 106.016 181.767 94.784V57.848H168.807V62.456H168.087C165.351 58.928 161.823 56.984 156.711 56.984C146.991 56.984 140.367 64.112 140.367 76.424C140.367 88.016 147.063 95.288 156.783 95.288C161.463 95.288 164.847 93.56 167.583 90.464H168.303V94.28C168.303 99.032 165.351 102.2 160.671 102.2C157.071 102.2 154.335 100.256 153.471 97.088L140.511 98.888C141.879 107.672 149.655 112.496 161.319 112.496ZM161.391 84.488C156.999 84.488 153.903 81.104 153.903 76.424C153.903 71.672 156.999 68.216 161.391 68.216C165.711 68.216 168.879 71.672 168.879 76.424C168.879 81.104 165.711 84.488 161.391 84.488ZM225.441 57.848H211.977V78.296C211.977 82.04 209.529 84.632 206.361 84.632C203.193 84.632 201.177 82.112 201.177 78.512V57.848H187.713V81.032C187.713 89.672 193.113 95.864 200.817 95.864C205.209 95.864 208.305 93.92 211.257 89.528H211.977V95H225.441V57.848ZM231.809 95H245.273V41.288H231.809V95ZM262.149 95.864C266.973 95.864 271.437 94.064 273.525 90.608H274.245V95H287.781V70.592C287.781 62.24 280.509 56.912 269.493 56.912C258.405 56.912 251.277 62.24 251.277 70.52H264.309C264.309 67.352 266.397 65.48 269.349 65.48C272.445 65.48 274.245 67.352 274.245 70.088V71.744L267.765 72.536C255.597 74.192 249.765 78.008 249.765 85.208C249.765 91.976 254.805 95.864 262.149 95.864ZM267.405 87.728C264.453 87.728 262.725 86.216 262.725 83.912C262.725 81.752 264.309 80.24 268.269 79.736L274.245 78.872V81.104C274.245 84.92 271.437 87.728 267.405 87.728ZM293.684 95H307.148V76.568C307.148 71.744 310.028 68.504 314.132 68.504C315.86 68.504 318.452 69.08 320.612 70.016V58.064C319.46 57.488 317.948 57.128 316.508 57.128C312.764 57.128 309.452 59.432 307.868 63.104H307.076V57.848H293.684V95Z" fill="#DD0031"/>
<path d="M345.061 96.44C353.125 96.44 359.677 92.696 362.629 86.504L357.661 83.984C355.357 88.304 350.605 91.04 345.205 91.04C337.789 91.04 332.461 86.144 331.597 78.8H363.781C363.853 78.008 363.853 77.144 363.853 76.424C363.853 65.264 355.861 57.2 344.773 57.2C333.541 57.2 325.477 65.264 325.477 76.352C325.477 88.016 333.685 96.44 345.061 96.44ZM331.669 73.544C332.677 66.992 337.789 62.6 344.485 62.6C351.397 62.6 356.509 66.992 357.589 73.544H331.669ZM387.956 96.44C397.244 96.44 402.788 92.336 402.788 85.208C402.788 76.496 394.94 74.768 388.1 73.904C382.7 73.256 377.804 72.896 377.804 68.36C377.804 64.616 381.404 62.24 386.66 62.24C392.276 62.24 396.092 65.048 396.164 69.512H401.996C401.996 62.024 395.804 57.2 386.732 57.2C378.02 57.2 372.116 61.52 372.116 68.576C372.116 76.856 379.964 78.656 386.732 79.448C392.204 80.168 397.172 80.528 397.172 85.28C397.172 89.096 393.644 91.4 388.172 91.4C381.332 91.4 377.3 87.872 377.228 82.688H371.468C371.468 91.328 377.516 96.44 387.956 96.44ZM427.19 96.44C436.478 96.44 442.022 92.336 442.022 85.208C442.022 76.496 434.174 74.768 427.334 73.904C421.934 73.256 417.038 72.896 417.038 68.36C417.038 64.616 420.638 62.24 425.894 62.24C431.51 62.24 435.326 65.048 435.398 69.512H441.23C441.23 62.024 435.038 57.2 425.966 57.2C417.254 57.2 411.35 61.52 411.35 68.576C411.35 76.856 419.198 78.656 425.966 79.448C431.438 80.168 436.406 80.528 436.406 85.28C436.406 89.096 432.878 91.4 427.406 91.4C420.566 91.4 416.534 87.872 416.462 82.688H410.702C410.702 91.328 416.75 96.44 427.19 96.44ZM469.233 96.44C477.297 96.44 483.849 92.696 486.801 86.504L481.833 83.984C479.529 88.304 474.777 91.04 469.377 91.04C461.961 91.04 456.633 86.144 455.769 78.8H487.953C488.025 78.008 488.025 77.144 488.025 76.424C488.025 65.264 480.033 57.2 468.945 57.2C457.713 57.2 449.649 65.264 449.649 76.352C449.649 88.016 457.857 96.44 469.233 96.44ZM455.841 73.544C456.849 66.992 461.961 62.6 468.657 62.6C475.569 62.6 480.681 66.992 481.761 73.544H455.841ZM497.224 95H503.2V73.76C503.2 67.424 508.456 62.672 514.576 62.672C520.84 62.672 524.512 67.136 524.512 73.256V95H530.488V73.256C530.488 64.04 524.584 57.272 515.368 57.272C510.544 57.272 506.512 59.576 503.92 63.608H503.2V58.64H497.224V95ZM555.721 96.44C565.009 96.44 570.553 92.336 570.553 85.208C570.553 76.496 562.705 74.768 555.865 73.904C550.465 73.256 545.569 72.896 545.569 68.36C545.569 64.616 549.169 62.24 554.425 62.24C560.041 62.24 563.857 65.048 563.929 69.512H569.761C569.761 62.024 563.569 57.2 554.497 57.2C545.785 57.2 539.881 61.52 539.881 68.576C539.881 76.856 547.729 78.656 554.497 79.448C559.969 80.168 564.937 80.528 564.937 85.28C564.937 89.096 561.409 91.4 555.937 91.4C549.097 91.4 545.065 87.872 544.993 82.688H539.233C539.233 91.328 545.281 96.44 555.721 96.44ZM597.764 96.44C605.828 96.44 612.38 92.696 615.332 86.504L610.364 83.984C608.06 88.304 603.308 91.04 597.908 91.04C590.492 91.04 585.164 86.144 584.3 78.8H616.484C616.556 78.008 616.556 77.144 616.556 76.424C616.556 65.264 608.564 57.2 597.476 57.2C586.244 57.2 578.18 65.264 578.18 76.352C578.18 88.016 586.388 96.44 597.764 96.44ZM584.372 73.544C585.38 66.992 590.492 62.6 597.188 62.6C604.1 62.6 609.212 66.992 610.292 73.544H584.372Z" fill="#374151"/>
<path d="M270.152 128.816C274.616 128.816 277.784 125.72 277.784 121.4C277.784 117.08 274.616 114.056 270.152 114.056C265.76 114.056 262.52 117.08 262.52 121.4C262.52 125.72 265.76 128.816 270.152 128.816ZM263.24 186.992C271.376 186.992 276.92 181.088 276.92 172.448V132.848H263.384V170.936C263.384 173.744 261.44 175.688 258.488 175.688C257.12 175.688 255.464 175.544 254.312 175.256V185.696C256.76 186.488 260.288 186.992 263.24 186.992ZM300.333 171.224C312.141 171.224 319.413 166.184 319.413 157.904C319.413 149.12 310.917 147.464 304.149 146.744C299.181 146.168 294.789 146.024 294.789 143.216C294.789 141.2 296.949 139.832 299.973 139.832C303.429 139.832 305.877 141.56 305.949 144.152H317.901C317.901 136.52 310.269 131.696 299.973 131.696C289.389 131.696 282.405 136.592 282.405 144.44C282.405 154.736 292.269 155.312 298.965 155.96C302.853 156.32 306.021 156.752 306.021 159.416C306.021 161.648 303.789 163.016 300.621 163.016C296.373 163.016 293.637 160.928 293.637 157.76H282.189C282.189 166.112 289.173 171.224 300.333 171.224Z" fill="#F4B512"/>
<path d="M344.428 171.44C352.492 171.44 359.044 167.696 361.996 161.504L357.028 158.984C354.724 163.304 349.972 166.04 344.572 166.04C337.156 166.04 331.828 161.144 330.964 153.8H363.148C363.22 153.008 363.22 152.144 363.22 151.424C363.22 140.264 355.228 132.2 344.14 132.2C332.908 132.2 324.844 140.264 324.844 151.352C324.844 163.016 333.052 171.44 344.428 171.44ZM331.036 148.544C332.044 141.992 337.156 137.6 343.852 137.6C350.764 137.6 355.876 141.992 356.956 148.544H331.036ZM387.323 171.44C396.611 171.44 402.155 167.336 402.155 160.208C402.155 151.496 394.307 149.768 387.467 148.904C382.067 148.256 377.171 147.896 377.171 143.36C377.171 139.616 380.771 137.24 386.027 137.24C391.643 137.24 395.459 140.048 395.531 144.512H401.363C401.363 137.024 395.171 132.2 386.099 132.2C377.387 132.2 371.483 136.52 371.483 143.576C371.483 151.856 379.331 153.656 386.099 154.448C391.571 155.168 396.539 155.528 396.539 160.28C396.539 164.096 393.011 166.4 387.539 166.4C380.699 166.4 376.667 162.872 376.595 157.688H370.835C370.835 166.328 376.883 171.44 387.323 171.44ZM426.557 171.44C435.845 171.44 441.389 167.336 441.389 160.208C441.389 151.496 433.541 149.768 426.701 148.904C421.301 148.256 416.405 147.896 416.405 143.36C416.405 139.616 420.005 137.24 425.261 137.24C430.877 137.24 434.693 140.048 434.765 144.512H440.597C440.597 137.024 434.405 132.2 425.333 132.2C416.621 132.2 410.717 136.52 410.717 143.576C410.717 151.856 418.565 153.656 425.333 154.448C430.805 155.168 435.773 155.528 435.773 160.28C435.773 164.096 432.245 166.4 426.773 166.4C419.933 166.4 415.901 162.872 415.829 157.688H410.069C410.069 166.328 416.117 171.44 426.557 171.44ZM468.6 171.44C476.664 171.44 483.216 167.696 486.168 161.504L481.2 158.984C478.896 163.304 474.144 166.04 468.744 166.04C461.328 166.04 456 161.144 455.136 153.8H487.32C487.392 153.008 487.392 152.144 487.392 151.424C487.392 140.264 479.4 132.2 468.312 132.2C457.08 132.2 449.016 140.264 449.016 151.352C449.016 163.016 457.224 171.44 468.6 171.44ZM455.208 148.544C456.216 141.992 461.328 137.6 468.024 137.6C474.936 137.6 480.048 141.992 481.128 148.544H455.208ZM496.591 170H502.567V148.76C502.567 142.424 507.823 137.672 513.943 137.672C520.207 137.672 523.879 142.136 523.879 148.256V170H529.855V148.256C529.855 139.04 523.951 132.272 514.735 132.272C509.911 132.272 505.879 134.576 503.287 138.608H502.567V133.64H496.591V170ZM555.089 171.44C564.377 171.44 569.921 167.336 569.921 160.208C569.921 151.496 562.073 149.768 555.233 148.904C549.833 148.256 544.937 147.896 544.937 143.36C544.937 139.616 548.537 137.24 553.793 137.24C559.409 137.24 563.225 140.048 563.297 144.512H569.129C569.129 137.024 562.937 132.2 553.865 132.2C545.153 132.2 539.249 136.52 539.249 143.576C539.249 151.856 547.097 153.656 553.865 154.448C559.337 155.168 564.305 155.528 564.305 160.28C564.305 164.096 560.777 166.4 555.305 166.4C548.465 166.4 544.433 162.872 544.361 157.688H538.601C538.601 166.328 544.649 171.44 555.089 171.44ZM597.131 171.44C605.195 171.44 611.747 167.696 614.699 161.504L609.731 158.984C607.427 163.304 602.675 166.04 597.275 166.04C589.859 166.04 584.531 161.144 583.667 153.8H615.851C615.923 153.008 615.923 152.144 615.923 151.424C615.923 140.264 607.931 132.2 596.843 132.2C585.611 132.2 577.547 140.264 577.547 151.352C577.547 163.016 585.755 171.44 597.131 171.44ZM583.739 148.544C584.747 141.992 589.859 137.6 596.555 137.6C603.467 137.6 608.579 141.992 609.659 148.544H583.739Z" fill="#374151"/>
<path d="M270.08 245.936C272.384 245.936 275.84 245.504 278.216 244.64V235.28C277.064 235.568 275.624 235.784 274.616 235.784C271.952 235.784 270.224 233.84 270.224 230.96V217.424H278V207.848H270.224V196.256H259.64L257.192 207.848H251.936V217.424H256.688V231.608C256.688 240.176 261.944 245.936 270.08 245.936ZM300.192 246.224C312 246.224 319.272 241.184 319.272 232.904C319.272 224.12 310.776 222.464 304.008 221.744C299.04 221.168 294.648 221.024 294.648 218.216C294.648 216.2 296.808 214.832 299.832 214.832C303.288 214.832 305.736 216.56 305.808 219.152H317.76C317.76 211.52 310.128 206.696 299.832 206.696C289.248 206.696 282.264 211.592 282.264 219.44C282.264 229.736 292.128 230.312 298.824 230.96C302.712 231.32 305.88 231.752 305.88 234.416C305.88 236.648 303.648 238.016 300.48 238.016C296.232 238.016 293.496 235.928 293.496 232.76H282.048C282.048 241.112 289.032 246.224 300.192 246.224Z" fill="#3178C6"/>
<path d="M344.287 246.44C352.351 246.44 358.903 242.696 361.855 236.504L356.887 233.984C354.583 238.304 349.831 241.04 344.431 241.04C337.015 241.04 331.687 236.144 330.823 228.8H363.007C363.079 228.008 363.079 227.144 363.079 226.424C363.079 215.264 355.087 207.2 343.999 207.2C332.767 207.2 324.703 215.264 324.703 226.352C324.703 238.016 332.911 246.44 344.287 246.44ZM330.895 223.544C331.903 216.992 337.015 212.6 343.711 212.6C350.623 212.6 355.735 216.992 356.815 223.544H330.895ZM387.182 246.44C396.47 246.44 402.014 242.336 402.014 235.208C402.014 226.496 394.166 224.768 387.326 223.904C381.926 223.256 377.03 222.896 377.03 218.36C377.03 214.616 380.63 212.24 385.886 212.24C391.502 212.24 395.318 215.048 395.39 219.512H401.222C401.222 212.024 395.03 207.2 385.958 207.2C377.246 207.2 371.342 211.52 371.342 218.576C371.342 226.856 379.19 228.656 385.958 229.448C391.43 230.168 396.398 230.528 396.398 235.28C396.398 239.096 392.87 241.4 387.398 241.4C380.558 241.4 376.526 237.872 376.454 232.688H370.694C370.694 241.328 376.742 246.44 387.182 246.44ZM426.417 246.44C435.705 246.44 441.249 242.336 441.249 235.208C441.249 226.496 433.401 224.768 426.561 223.904C421.161 223.256 416.265 222.896 416.265 218.36C416.265 214.616 419.865 212.24 425.121 212.24C430.737 212.24 434.553 215.048 434.625 219.512H440.457C440.457 212.024 434.265 207.2 425.193 207.2C416.481 207.2 410.577 211.52 410.577 218.576C410.577 226.856 418.425 228.656 425.193 229.448C430.665 230.168 435.633 230.528 435.633 235.28C435.633 239.096 432.105 241.4 426.633 241.4C419.793 241.4 415.761 237.872 415.689 232.688H409.929C409.929 241.328 415.977 246.44 426.417 246.44ZM468.459 246.44C476.523 246.44 483.075 242.696 486.027 236.504L481.059 233.984C478.755 238.304 474.003 241.04 468.603 241.04C461.187 241.04 455.859 236.144 454.995 228.8H487.179C487.251 228.008 487.251 227.144 487.251 226.424C487.251 215.264 479.259 207.2 468.171 207.2C456.939 207.2 448.875 215.264 448.875 226.352C448.875 238.016 457.083 246.44 468.459 246.44ZM455.067 223.544C456.075 216.992 461.187 212.6 467.883 212.6C474.795 212.6 479.907 216.992 480.987 223.544H455.067ZM496.45 245H502.426V223.76C502.426 217.424 507.682 212.672 513.802 212.672C520.066 212.672 523.738 217.136 523.738 223.256V245H529.714V223.256C529.714 214.04 523.81 207.272 514.594 207.272C509.77 207.272 505.738 209.576 503.146 213.608H502.426V208.64H496.45V245ZM554.948 246.44C564.236 246.44 569.78 242.336 569.78 235.208C569.78 226.496 561.932 224.768 555.092 223.904C549.692 223.256 544.796 222.896 544.796 218.36C544.796 214.616 548.396 212.24 553.652 212.24C559.268 212.24 563.084 215.048 563.156 219.512H568.988C568.988 212.024 562.796 207.2 553.724 207.2C545.012 207.2 539.108 211.52 539.108 218.576C539.108 226.856 546.956 228.656 553.724 229.448C559.196 230.168 564.164 230.528 564.164 235.28C564.164 239.096 560.636 241.4 555.164 241.4C548.324 241.4 544.292 237.872 544.22 232.688H538.46C538.46 241.328 544.508 246.44 554.948 246.44ZM596.99 246.44C605.054 246.44 611.606 242.696 614.558 236.504L609.59 233.984C607.286 238.304 602.534 241.04 597.134 241.04C589.718 241.04 584.39 236.144 583.526 228.8H615.71C615.782 228.008 615.782 227.144 615.782 226.424C615.782 215.264 607.79 207.2 596.702 207.2C585.47 207.2 577.406 215.264 577.406 226.352C577.406 238.016 585.614 246.44 596.99 246.44ZM583.598 223.544C584.606 216.992 589.718 212.6 596.414 212.6C603.326 212.6 608.438 216.992 609.518 223.544H583.598Z" fill="#374151"/>
</svg>
