<svg width="152" height="27" viewBox="0 0 152 27" fill="none" xmlns="http://www.w3.org/2000/svg">
<path d="M8.778 8.988C10.2447 8.988 11.4253 9.428 12.32 10.308C13.2293 11.188 13.684 12.4933 13.684 14.224V21H10.252V14.752C10.252 13.8133 10.0467 13.1167 9.636 12.662C9.22533 12.1927 8.63133 11.958 7.854 11.958C6.98867 11.958 6.29933 12.2293 5.786 12.772C5.27267 13.3 5.016 14.092 5.016 15.148V21H1.584V4.676H5.016V10.396C5.47067 9.94133 6.02067 9.59667 6.666 9.362C7.31133 9.11267 8.01533 8.988 8.778 8.988ZM22.5558 21.176C21.3092 21.176 20.1872 20.9193 19.1898 20.406C18.2072 19.878 17.4372 19.152 16.8798 18.228C16.3225 17.304 16.0438 16.2553 16.0438 15.082C16.0438 13.9087 16.3225 12.86 16.8798 11.936C17.4372 11.012 18.2072 10.2933 19.1898 9.78C20.1872 9.252 21.3092 8.988 22.5558 8.988C23.8025 8.988 24.9172 9.252 25.8998 9.78C26.8825 10.2933 27.6525 11.012 28.2098 11.936C28.7672 12.86 29.0458 13.9087 29.0458 15.082C29.0458 16.2553 28.7672 17.304 28.2098 18.228C27.6525 19.152 26.8825 19.878 25.8998 20.406C24.9172 20.9193 23.8025 21.176 22.5558 21.176ZM22.5558 18.36C23.4358 18.36 24.1545 18.0667 24.7118 17.48C25.2838 16.8787 25.5698 16.0793 25.5698 15.082C25.5698 14.0847 25.2838 13.2927 24.7118 12.706C24.1545 12.1047 23.4358 11.804 22.5558 11.804C21.6758 11.804 20.9498 12.1047 20.3778 12.706C19.8058 13.2927 19.5198 14.0847 19.5198 15.082C19.5198 16.0793 19.8058 16.8787 20.3778 17.48C20.9498 18.0667 21.6758 18.36 22.5558 18.36ZM36.9719 21.176C35.7252 21.176 34.6032 20.9193 33.6059 20.406C32.6232 19.878 31.8532 19.152 31.2959 18.228C30.7385 17.304 30.4599 16.2553 30.4599 15.082C30.4599 13.9087 30.7385 12.86 31.2959 11.936C31.8532 11.012 32.6232 10.2933 33.6059 9.78C34.6032 9.252 35.7252 8.988 36.9719 8.988C38.2185 8.988 39.3332 9.252 40.3159 9.78C41.2985 10.2933 42.0685 11.012 42.6259 11.936C43.1832 12.86 43.4619 13.9087 43.4619 15.082C43.4619 16.2553 43.1832 17.304 42.6259 18.228C42.0685 19.152 41.2985 19.878 40.3159 20.406C39.3332 20.9193 38.2185 21.176 36.9719 21.176ZM36.9719 18.36C37.8519 18.36 38.5705 18.0667 39.1279 17.48C39.6999 16.8787 39.9859 16.0793 39.9859 15.082C39.9859 14.0847 39.6999 13.2927 39.1279 12.706C38.5705 12.1047 37.8519 11.804 36.9719 11.804C36.0919 11.804 35.3659 12.1047 34.7939 12.706C34.2219 13.2927 33.9359 14.0847 33.9359 15.082C33.9359 16.0793 34.2219 16.8787 34.7939 17.48C35.3659 18.0667 36.0919 18.36 36.9719 18.36ZM52.9499 8.988C54.4165 8.988 55.5972 9.428 56.4919 10.308C57.4012 11.188 57.8559 12.4933 57.8559 14.224V21H54.4239V14.752C54.4239 13.8133 54.2185 13.1167 53.8079 12.662C53.3972 12.1927 52.8032 11.958 52.0259 11.958C51.1605 11.958 50.4712 12.2293 49.9579 12.772C49.4445 13.3 49.1879 14.092 49.1879 15.148V21H45.7559V9.164H49.0339V10.55C49.4885 10.0513 50.0532 9.67 50.7279 9.406C51.4025 9.12733 52.1432 8.988 52.9499 8.988ZM73.1517 4.676V21H69.8737V19.636C69.0231 20.6627 67.7911 21.176 66.1777 21.176C65.0631 21.176 64.0511 20.9267 63.1417 20.428C62.2471 19.9293 61.5431 19.218 61.0297 18.294C60.5164 17.37 60.2597 16.2993 60.2597 15.082C60.2597 13.8647 60.5164 12.794 61.0297 11.87C61.5431 10.946 62.2471 10.2347 63.1417 9.736C64.0511 9.23733 65.0631 8.988 66.1777 8.988C67.6884 8.988 68.8691 9.46467 69.7197 10.418V4.676H73.1517ZM66.7717 18.36C67.6371 18.36 68.3557 18.0667 68.9277 17.48C69.4997 16.8787 69.7857 16.0793 69.7857 15.082C69.7857 14.0847 69.4997 13.2927 68.9277 12.706C68.3557 12.1047 67.6371 11.804 66.7717 11.804C65.8917 11.804 65.1657 12.1047 64.5937 12.706C64.0217 13.2927 63.7357 14.0847 63.7357 15.082C63.7357 16.0793 64.0217 16.8787 64.5937 17.48C65.1657 18.0667 65.8917 18.36 66.7717 18.36ZM82.2901 18.426C82.9061 18.426 83.4488 18.338 83.9181 18.162C84.4021 17.9713 84.8495 17.678 85.2601 17.282L87.0861 19.262C85.9715 20.538 84.3435 21.176 82.2021 21.176C80.8675 21.176 79.6868 20.9193 78.6601 20.406C77.6335 19.878 76.8415 19.152 76.2841 18.228C75.7268 17.304 75.4481 16.2553 75.4481 15.082C75.4481 13.9233 75.7195 12.882 76.2621 11.958C76.8195 11.0193 77.5748 10.2933 78.5281 9.78C79.4961 9.252 80.5815 8.988 81.7841 8.988C82.9135 8.988 83.9401 9.23 84.8641 9.714C85.7881 10.1833 86.5215 10.8727 87.0641 11.782C87.6215 12.6767 87.9001 13.74 87.9001 14.972L79.1441 16.666C79.3935 17.2527 79.7821 17.6927 80.3101 17.986C80.8528 18.2793 81.5128 18.426 82.2901 18.426ZM81.7841 11.584C80.9188 11.584 80.2148 11.8627 79.6721 12.42C79.1295 12.9773 78.8435 13.7473 78.8141 14.73L84.5781 13.608C84.4168 12.992 84.0868 12.5007 83.5881 12.134C83.0895 11.7673 82.4881 11.584 81.7841 11.584ZM101.74 9.164L96.7462 21H93.2042L88.2322 9.164H91.7742L95.0522 17.216L98.4402 9.164H101.74Z" fill="black"/>
<path d="M108.742 5.886C108.067 5.886 107.554 6.06933 107.202 6.436C106.865 6.80267 106.696 7.34533 106.696 8.064V9.428H110.26V10.748H106.74V21H105.178V7.998C105.178 6.942 105.479 6.106 106.08 5.49C106.696 4.874 107.561 4.566 108.676 4.566C109.116 4.566 109.541 4.632 109.952 4.764C110.363 4.88133 110.707 5.05733 110.986 5.292L110.458 6.458C110.003 6.07667 109.431 5.886 108.742 5.886ZM117.132 19.724C117.851 19.724 118.511 19.5993 119.112 19.35C119.728 19.086 120.249 18.7047 120.674 18.206L121.554 19.218C121.041 19.834 120.403 20.3033 119.64 20.626C118.877 20.9487 118.034 21.11 117.11 21.11C115.922 21.11 114.866 20.8607 113.942 20.362C113.018 19.8487 112.299 19.1447 111.786 18.25C111.273 17.3553 111.016 16.3433 111.016 15.214C111.016 14.0847 111.258 13.0727 111.742 12.178C112.241 11.2833 112.923 10.5867 113.788 10.088C114.653 9.58933 115.636 9.34 116.736 9.34C117.763 9.34 118.687 9.57467 119.508 10.044C120.344 10.5133 121.004 11.166 121.488 12.002C121.987 12.838 122.251 13.7913 122.28 14.862L112.776 16.71C113.069 17.6487 113.597 18.3893 114.36 18.932C115.137 19.46 116.061 19.724 117.132 19.724ZM116.736 10.682C115.929 10.682 115.203 10.8727 114.558 11.254C113.927 11.6207 113.429 12.1413 113.062 12.816C112.71 13.476 112.534 14.2387 112.534 15.104C112.534 15.324 112.541 15.4853 112.556 15.588L120.718 14.004C120.542 13.036 120.095 12.244 119.376 11.628C118.657 10.9973 117.777 10.682 116.736 10.682ZM130.409 19.724C131.128 19.724 131.788 19.5993 132.389 19.35C133.005 19.086 133.526 18.7047 133.951 18.206L134.831 19.218C134.318 19.834 133.68 20.3033 132.917 20.626C132.155 20.9487 131.311 21.11 130.387 21.11C129.199 21.11 128.143 20.8607 127.219 20.362C126.295 19.8487 125.577 19.1447 125.063 18.25C124.55 17.3553 124.293 16.3433 124.293 15.214C124.293 14.0847 124.535 13.0727 125.019 12.178C125.518 11.2833 126.2 10.5867 127.065 10.088C127.931 9.58933 128.913 9.34 130.013 9.34C131.04 9.34 131.964 9.57467 132.785 10.044C133.621 10.5133 134.281 11.166 134.765 12.002C135.264 12.838 135.528 13.7913 135.557 14.862L126.053 16.71C126.347 17.6487 126.875 18.3893 127.637 18.932C128.415 19.46 129.339 19.724 130.409 19.724ZM130.013 10.682C129.207 10.682 128.481 10.8727 127.835 11.254C127.205 11.6207 126.706 12.1413 126.339 12.816C125.987 13.476 125.811 14.2387 125.811 15.104C125.811 15.324 125.819 15.4853 125.833 15.588L133.995 14.004C133.819 13.036 133.372 12.244 132.653 11.628C131.935 10.9973 131.055 10.682 130.013 10.682ZM149.297 4.676V21H147.801V18.712C147.331 19.4893 146.708 20.0833 145.931 20.494C145.168 20.9047 144.303 21.11 143.335 21.11C142.249 21.11 141.267 20.8607 140.387 20.362C139.507 19.8633 138.817 19.1667 138.319 18.272C137.82 17.3773 137.571 16.358 137.571 15.214C137.571 14.07 137.82 13.0507 138.319 12.156C138.817 11.2613 139.507 10.572 140.387 10.088C141.267 9.58933 142.249 9.34 143.335 9.34C144.273 9.34 145.117 9.538 145.865 9.934C146.627 10.3153 147.251 10.88 147.735 11.628V4.676H149.297ZM143.467 19.724C144.273 19.724 144.999 19.5407 145.645 19.174C146.305 18.7927 146.818 18.2573 147.185 17.568C147.566 16.8787 147.757 16.094 147.757 15.214C147.757 14.334 147.566 13.5493 147.185 12.86C146.818 12.1707 146.305 11.6427 145.645 11.276C144.999 10.8947 144.273 10.704 143.467 10.704C142.645 10.704 141.905 10.8947 141.245 11.276C140.599 11.6427 140.086 12.1707 139.705 12.86C139.338 13.5493 139.155 14.334 139.155 15.214C139.155 16.094 139.338 16.8787 139.705 17.568C140.086 18.2573 140.599 18.7927 141.245 19.174C141.905 19.5407 142.645 19.724 143.467 19.724Z" fill="black"/>
</svg>
