<svg width="24" height="25" viewBox="0 0 24 25" fill="none" xmlns="http://www.w3.org/2000/svg">
<path fill-rule="evenodd" clip-rule="evenodd" d="M18.248 17.4972C18.1656 17.4991 18.0829 17.5 18 17.5C11.9249 17.5 7 12.5751 7 6.49999C7 6.41709 7.00092 6.3344 7.00275 6.25192C5.17211 7.71851 4 9.97339 4 12.5C4 16.9182 7.58172 20.5 12 20.5C14.5266 20.5 16.7814 19.3279 18.248 17.4972ZM19.4661 15.3812C18.989 15.4593 18.4992 15.5 18 15.5C13.0294 15.5 9 11.4706 9 6.49999C9 6.00074 9.04065 5.51099 9.11882 5.03386C9.25094 4.22745 9.49024 3.4571 9.82162 2.73792C8.96026 2.92928 8.14073 3.23173 7.37882 3.62946C4.18215 5.29821 2 8.64425 2 12.5C2 18.0228 6.47715 22.5 12 22.5C15.8557 22.5 19.2017 20.3178 20.8705 17.1212C21.2682 16.3593 21.5707 15.5397 21.762 14.6784C21.0429 15.0098 20.2725 15.2491 19.4661 15.3812Z" fill="#28293D"/>
</svg>
