<svg width="24" height="25" viewBox="0 0 24 25" fill="none" xmlns="http://www.w3.org/2000/svg">
<path d="M12.998 22.5H10.998V19.5H12.998V22.5ZM18.362 20.278L16.241 18.157L17.655 16.743L19.777 18.865L18.364 20.278H18.362ZM5.63399 20.278L4.21899 18.864L6.33899 16.742L7.75399 18.156L5.63399 20.277V20.278ZM11.998 17.507C9.23296 17.5059 6.99225 15.2637 6.99299 12.4987C6.99372 9.73364 9.23562 7.49263 12.0007 7.493C14.7657 7.49337 17.007 9.73497 17.007 12.5C17.0042 15.2649 14.7629 17.5053 11.998 17.507ZM11.998 9.493C10.3375 9.4941 8.99225 10.8409 8.99299 12.5013C8.99372 14.1618 10.3402 15.5074 12.0007 15.507C13.6611 15.5066 15.007 14.1605 15.007 12.5C15.0053 10.8392 13.6588 9.49355 11.998 9.493ZM21.998 13.5H18.998V11.5H21.998V13.5ZM4.99799 13.5H1.99799V11.5H4.99799V13.5ZM17.654 8.258L16.241 6.843L18.362 4.721L19.777 6.136L17.655 8.257L17.654 8.258ZM6.34099 8.258L4.22099 6.137L5.63599 4.723L7.75599 6.845L6.34199 8.257L6.34099 8.258ZM12.998 5.5H10.998V2.5H12.998V5.5Z" fill="#28293D"/>
</svg>
